<mxfile host="app.diagrams.net" modified="2021-08-05T15:12:42.447Z" agent="5.0 (Windows NT 10.0; Win64; x64) AppleWebKit/537.36 (KHTML, like Gecko) Chrome/92.0.4515.131 Safari/537.36" etag="slS6h1_EeyKj0p0J3T2T" version="14.9.4" type="github">
  <diagram id="MPky-mmTpgfoS_cyS8KE" name="Page-1">
    <mxGraphModel dx="1102" dy="914" grid="1" gridSize="10" guides="1" tooltips="1" connect="1" arrows="1" fold="1" page="1" pageScale="1" pageWidth="1000" pageHeight="700" math="0" shadow="0">
      <root>
        <mxCell id="0" />
        <mxCell id="1" parent="0" />
        <mxCell id="8G-2YTtxzCeMNJqdnLcs-34" style="edgeStyle=orthogonalEdgeStyle;rounded=0;orthogonalLoop=1;jettySize=auto;html=1;exitX=0.5;exitY=0;exitDx=0;exitDy=0;entryX=0.5;entryY=1;entryDx=0;entryDy=0;fontColor=#FF0526;endArrow=ERzeroToMany;endFill=1;" parent="1" source="8G-2YTtxzCeMNJqdnLcs-1" target="8G-2YTtxzCeMNJqdnLcs-11" edge="1">
          <mxGeometry relative="1" as="geometry" />
        </mxCell>
        <mxCell id="8G-2YTtxzCeMNJqdnLcs-47" style="edgeStyle=orthogonalEdgeStyle;rounded=0;orthogonalLoop=1;jettySize=auto;html=1;exitX=0;exitY=0.25;exitDx=0;exitDy=0;fontColor=#FF0526;endArrow=ERzeroToMany;endFill=1;" parent="1" source="8G-2YTtxzCeMNJqdnLcs-1" edge="1">
          <mxGeometry relative="1" as="geometry">
            <mxPoint x="230" y="237.16666666666674" as="targetPoint" />
          </mxGeometry>
        </mxCell>
        <mxCell id="8G-2YTtxzCeMNJqdnLcs-49" style="edgeStyle=orthogonalEdgeStyle;rounded=0;orthogonalLoop=1;jettySize=auto;html=1;exitX=0;exitY=0.75;exitDx=0;exitDy=0;entryX=1;entryY=0;entryDx=0;entryDy=0;fontColor=#FF0526;endArrow=ERzeroToMany;endFill=1;" parent="1" source="8G-2YTtxzCeMNJqdnLcs-1" target="8G-2YTtxzCeMNJqdnLcs-13" edge="1">
          <mxGeometry relative="1" as="geometry" />
        </mxCell>
        <mxCell id="8G-2YTtxzCeMNJqdnLcs-53" style="edgeStyle=orthogonalEdgeStyle;rounded=0;orthogonalLoop=1;jettySize=auto;html=1;exitX=0.5;exitY=1;exitDx=0;exitDy=0;entryX=0.5;entryY=0;entryDx=0;entryDy=0;fontColor=#FF0526;endArrow=ERzeroToMany;endFill=1;" parent="1" source="8G-2YTtxzCeMNJqdnLcs-1" target="8G-2YTtxzCeMNJqdnLcs-19" edge="1">
          <mxGeometry relative="1" as="geometry" />
        </mxCell>
        <mxCell id="8G-2YTtxzCeMNJqdnLcs-1" value="Account" style="swimlane;" parent="1" vertex="1">
          <mxGeometry x="390" y="210" width="170" height="110" as="geometry" />
        </mxCell>
        <mxCell id="8G-2YTtxzCeMNJqdnLcs-51" style="edgeStyle=orthogonalEdgeStyle;rounded=0;orthogonalLoop=1;jettySize=auto;html=1;exitX=1;exitY=0.5;exitDx=0;exitDy=0;entryX=0;entryY=0.5;entryDx=0;entryDy=0;fontColor=#FF0526;endArrow=ERzeroToMany;endFill=1;" parent="1" source="8G-2YTtxzCeMNJqdnLcs-11" target="8G-2YTtxzCeMNJqdnLcs-14" edge="1">
          <mxGeometry relative="1" as="geometry" />
        </mxCell>
        <mxCell id="8G-2YTtxzCeMNJqdnLcs-58" style="edgeStyle=orthogonalEdgeStyle;rounded=0;orthogonalLoop=1;jettySize=auto;html=1;exitX=1;exitY=1;exitDx=0;exitDy=0;entryX=0.041;entryY=0.012;entryDx=0;entryDy=0;entryPerimeter=0;fontColor=#FF0526;endArrow=ERzeroToMany;endFill=1;" parent="1" source="8G-2YTtxzCeMNJqdnLcs-11" target="8G-2YTtxzCeMNJqdnLcs-15" edge="1">
          <mxGeometry relative="1" as="geometry" />
        </mxCell>
        <mxCell id="8G-2YTtxzCeMNJqdnLcs-11" value="Opportunity" style="swimlane;fillColor=#FFFFFF;" parent="1" vertex="1">
          <mxGeometry x="390" y="40" width="170" height="110" as="geometry" />
        </mxCell>
        <mxCell id="8G-2YTtxzCeMNJqdnLcs-12" value="Lead" style="swimlane;" parent="1" vertex="1">
          <mxGeometry x="760" y="480" width="170" height="110" as="geometry" />
        </mxCell>
        <mxCell id="8G-2YTtxzCeMNJqdnLcs-50" style="edgeStyle=orthogonalEdgeStyle;rounded=0;orthogonalLoop=1;jettySize=auto;html=1;exitX=0.5;exitY=0;exitDx=0;exitDy=0;fontColor=#FF0526;endArrow=ERzeroToMany;endFill=1;" parent="1" source="8G-2YTtxzCeMNJqdnLcs-13" edge="1">
          <mxGeometry relative="1" as="geometry">
            <mxPoint x="155.33333333333348" y="290" as="targetPoint" />
          </mxGeometry>
        </mxCell>
        <mxCell id="8G-2YTtxzCeMNJqdnLcs-55" style="edgeStyle=orthogonalEdgeStyle;rounded=0;orthogonalLoop=1;jettySize=auto;html=1;exitX=1;exitY=0.75;exitDx=0;exitDy=0;fontColor=#FF0526;endArrow=ERzeroToMany;endFill=1;" parent="1" source="8G-2YTtxzCeMNJqdnLcs-13" edge="1">
          <mxGeometry relative="1" as="geometry">
            <mxPoint x="390" y="432.16666666666674" as="targetPoint" />
          </mxGeometry>
        </mxCell>
        <mxCell id="8G-2YTtxzCeMNJqdnLcs-13" value="Contact" style="swimlane;" parent="1" vertex="1">
          <mxGeometry x="120" y="350" width="170" height="110" as="geometry" />
        </mxCell>
        <mxCell id="8G-2YTtxzCeMNJqdnLcs-14" value="PriceBook" style="swimlane;startSize=23;" parent="1" vertex="1">
          <mxGeometry x="690" y="40" width="170" height="110" as="geometry" />
        </mxCell>
        <mxCell id="8G-2YTtxzCeMNJqdnLcs-59" style="edgeStyle=orthogonalEdgeStyle;rounded=0;orthogonalLoop=1;jettySize=auto;html=1;exitX=0;exitY=1;exitDx=0;exitDy=0;entryX=1;entryY=0.5;entryDx=0;entryDy=0;fontColor=#FF0526;endArrow=ERzeroToMany;endFill=1;" parent="1" source="8G-2YTtxzCeMNJqdnLcs-15" target="8G-2YTtxzCeMNJqdnLcs-16" edge="1">
          <mxGeometry relative="1" as="geometry" />
        </mxCell>
        <mxCell id="8G-2YTtxzCeMNJqdnLcs-15" value="Quote" style="swimlane;startSize=20;" parent="1" vertex="1">
          <mxGeometry x="730" y="220" width="170" height="110" as="geometry" />
        </mxCell>
        <mxCell id="8G-2YTtxzCeMNJqdnLcs-38" style="edgeStyle=orthogonalEdgeStyle;rounded=0;orthogonalLoop=1;jettySize=auto;html=1;exitX=1;exitY=0;exitDx=0;exitDy=0;fontColor=#FF0526;endArrow=ERzeroToMany;endFill=1;" parent="1" source="8G-2YTtxzCeMNJqdnLcs-16" edge="1">
          <mxGeometry relative="1" as="geometry">
            <mxPoint x="560" y="520" as="targetPoint" />
          </mxGeometry>
        </mxCell>
        <mxCell id="8G-2YTtxzCeMNJqdnLcs-16" value="Product" style="swimlane;" parent="1" vertex="1">
          <mxGeometry x="390" y="560" width="170" height="110" as="geometry" />
        </mxCell>
        <mxCell id="8G-2YTtxzCeMNJqdnLcs-17" value="CaseArticle" style="swimlane;labelBackgroundColor=none;" parent="1" vertex="1">
          <mxGeometry x="60" y="40" width="170" height="110" as="geometry" />
        </mxCell>
        <mxCell id="8G-2YTtxzCeMNJqdnLcs-52" style="edgeStyle=orthogonalEdgeStyle;rounded=0;orthogonalLoop=1;jettySize=auto;html=1;exitX=0.5;exitY=0;exitDx=0;exitDy=0;entryX=0.5;entryY=1;entryDx=0;entryDy=0;fontColor=#FF0526;endArrow=ERzeroToMany;endFill=1;" parent="1" source="8G-2YTtxzCeMNJqdnLcs-18" target="8G-2YTtxzCeMNJqdnLcs-17" edge="1">
          <mxGeometry relative="1" as="geometry" />
        </mxCell>
        <mxCell id="8G-2YTtxzCeMNJqdnLcs-18" value="Case" style="swimlane;" parent="1" vertex="1">
          <mxGeometry x="60" y="180" width="170" height="110" as="geometry" />
        </mxCell>
        <mxCell id="8G-2YTtxzCeMNJqdnLcs-57" style="edgeStyle=orthogonalEdgeStyle;rounded=0;orthogonalLoop=1;jettySize=auto;html=1;exitX=0;exitY=1;exitDx=0;exitDy=0;entryX=0;entryY=1;entryDx=0;entryDy=0;fontColor=#FF0526;endArrow=ERzeroToMany;endFill=1;" parent="1" source="8G-2YTtxzCeMNJqdnLcs-19" target="8G-2YTtxzCeMNJqdnLcs-18" edge="1">
          <mxGeometry relative="1" as="geometry" />
        </mxCell>
        <mxCell id="8G-2YTtxzCeMNJqdnLcs-19" value="Asset" style="swimlane;startSize=23;" parent="1" vertex="1">
          <mxGeometry x="390" y="400" width="170" height="110" as="geometry" />
        </mxCell>
      </root>
    </mxGraphModel>
  </diagram>
</mxfile>
